Coordinates
version=1
nRows=32
nColumns=22
inDegrees=yes

Units are S.I. units (second, meters, Newtons, ...)
If the header above contains a line with 'inDegrees', this indicates whether rotational values are in degrees (yes) or radians (no).

endheader
time	pelvis_tilt	pelvis_list	pelvis_rotation	pelvis_tx	pelvis_ty	pelvis_tz	hip_flexion_r	hip_adduction_r	hip_rotation_r	knee_angle_r	ankle_angle_r	subtalar_angle_r	hip_flexion_l	hip_adduction_l	hip_rotation_l	knee_angle_l	ankle_angle_l	subtalar_angle_l	lumbar_extension	lumbar_bending	lumbar_rotation
      5.23000000	     -0.68042082	     -4.17702978	    285.59951434	     -0.45149036	      0.92592197	      0.56612524	      9.91118072	     -7.28168075	     -0.18091267	    -66.26089484	    -10.84114232	     12.94843358	      8.40650846	      4.31210298	    -17.29650990	    -21.44060462	      6.86286120	    -13.04774990	     -6.25845727	     -3.98099887	      7.32307983
      5.24000000	     -0.46886380	     -4.19629263	    287.41509481	     -0.44636221	      0.92651669	      0.57237798	     10.91329108	     -7.50134687	     -0.57434674	    -66.06405964	     -9.46090567	     12.34167669	      7.58971568	      4.86322864	    -15.71512249	    -20.95417284	      6.91832879	    -12.89030043	     -6.37505866	     -3.99304263	      6.64351726
      5.25000000	     -0.26601342	     -4.22481099	    289.24635745	     -0.44130188	      0.92706450	      0.57840792	     11.85705505	     -7.72260290	     -0.95563668	    -65.65264888	     -8.20134664	     11.75367501	      6.74569663	      5.36140908	    -14.08283168	    -20.45206270	      6.96197472	    -12.75818749	     -6.52055085	     -3.99126730	      5.97958760
      5.26000000	     -0.05354415	     -4.30751142	    291.04841790	     -0.43636779	      0.92762236	      0.58433973	     12.67186474	     -7.92907863	     -1.28937197	    -65.01328313	     -6.91284564	     10.88889924	      5.82616326	      5.78781863	    -12.51694819	    -19.96075490	      7.08960692	    -12.60541814	     -6.73137247	     -3.98236109	      5.36171482
      5.27000000	      0.14332558	     -4.38419195	    292.84428062	     -0.43153439	      0.92812632	      0.59009269	     13.43886777	     -8.12246852	     -1.59625343	    -64.15725304	     -5.79365418	     10.18932343	      4.91134676	      6.15139436	    -10.92164478	    -19.47106415	      7.20272793	    -12.48433924	     -6.94601309	     -3.95498708	      4.77016980
      5.28000000	      0.33230363	     -4.46809460	    294.61619142	     -0.42682210	      0.92860314	      0.59574539	     14.13110714	     -8.29423416	     -1.86217819	    -63.08228206	     -4.80552060	      9.57321393	      3.98640529	      6.44857377	     -9.32897489	    -18.99131588	      7.32710673	    -12.37904019	     -7.16715689	     -3.91551189	      4.21755516
      5.29000000	      0.51194392	     -4.54450396	    296.35981767	     -0.42224232	      0.92903894	      0.60130731	     14.76029414	     -8.44671932	     -2.08575073	    -61.78703325	     -3.94246893	      9.06712068	      3.07784460	      6.68439073	     -7.73842717	    -18.53538642	      7.45657102	    -12.29417022	     -7.38040985	     -3.87134244	      3.69979160
      5.30000000	      0.68051550	     -4.60439646	    298.07131341	     -0.41779085	      0.92942964	      0.60680580	     15.33195965	     -8.58028094	     -2.26635583	    -60.27566721	     -3.19247544	      8.65962429	      2.20083359	      6.86383962	     -6.15036885	    -18.10972707	      7.58502723	    -12.23074062	     -7.57294678	     -3.82765291	      3.21783772
      5.31000000	      0.84056744	     -4.64533636	    299.75520539	     -0.41344754	      0.92977537	      0.61226187	     15.84198618	     -8.70191702	     -2.41135309	    -58.55402826	     -2.53344168	      8.33137591	      1.36086107	      6.99411534	     -4.55952936	    -17.72039570	      7.70973057	    -12.18600677	     -7.74108366	     -3.78994624	      2.76186033
      5.32000000	      0.98457519	     -4.65087691	    301.41483135	     -0.40920055	      0.93005236	      0.61766558	     16.31113980	     -8.81941892	     -2.52707605	    -56.63205064	     -1.97513460	      8.11523874	      0.58737646	      7.08194323	     -2.96309640	    -17.37963861	      7.80936921	    -12.16092154	     -7.86720345	     -3.76096257	      2.31933944
      5.33000000	      1.13033045	     -4.64013724	    303.04599473	     -0.40503885	      0.93027768	      0.62305315	     16.70890818	     -8.93862866	     -2.60787469	    -54.52508587	     -1.44273978	      7.95413210	     -0.14838497	      7.13715905	     -1.37386518	    -17.08931736	      7.93722912	    -12.13692225	     -7.97712487	     -3.75046131	      1.90287488
      5.34000000	      1.27450132	     -4.60342964	    304.64771139	     -0.40094642	      0.93043740	      0.62842383	     17.04744492	     -9.06952129	     -2.66299834	    -52.24398263	     -0.95128635	      7.87048968	     -0.83344379	      7.16702844	      0.19419438	    -16.85191458	      8.09045890	    -12.10980380	     -8.06156931	     -3.76196920	      1.50724640
      5.35000000	      1.38449277	     -4.47692799	    306.22700528	     -0.39692918	      0.93040522	      0.63373937	     17.42090269	     -9.23148095	     -2.69514478	    -49.82983065	     -0.53965626	      7.92028194	     -1.36711800	      7.19103866	      1.74585326	    -16.70916980	      8.26038433	    -12.09617065	     -8.04280747	     -3.80846838	      1.11358255
      5.36000000	      1.54662001	     -4.45272023	    307.75649573	     -0.39292709	      0.93054312	      0.63915778	     17.55886331	     -9.37477513	     -2.72377058	    -47.22010103	     -0.20916034	      7.95141531	     -2.05216900	      7.16248907	      3.24515057	    -16.52224651	      8.39316780	    -12.05195617	     -8.14156663	     -3.84309089	      0.77537186
      5.37000000	      1.68916805	     -4.35229326	    309.25245402	     -0.38899465	      0.93048306	      0.64454949	     17.71761037	     -9.55909181	     -2.73987289	    -44.51907515	      0.06382364	      8.05584394	     -2.60964983	      7.14301871	      4.70849802	    -16.43044615	      8.58913697	    -12.01069617	     -8.15914655	     -3.92203979	      0.46333407
      5.38000000	      1.83142075	     -4.22969516	    310.71219307	     -0.38509531	      0.93031913	      0.64993761	     17.82556304	     -9.77169587	     -2.76619851	    -41.72255023	      0.26755208	      8.19752243	     -3.12450259	      7.11991059	      6.12014861	    -16.38784930	      8.80651495	    -11.96737610	     -8.15616219	     -4.02094794	      0.16162498
      5.39000000	      1.95061790	     -4.04071133	    312.15143988	     -0.38124015	      0.92994934	      0.65527567	     17.95586863	    -10.03868923	     -2.83570376	    -38.88476944	      0.40196490	      8.34636330	     -3.52525068	      7.11244780	      7.49433386	    -16.43127331	      9.08766132	    -11.93231637	     -8.08611045	     -4.15834951	     -0.12325722
      5.40000000	      2.11660630	     -3.91816597	    313.54659214	     -0.37739018	      0.92964128	      0.66065688	     17.91565010	    -10.30371451	     -2.93562281	    -35.95589103	      0.49780026	      8.53869707	     -4.03153095	      7.07769336	      8.78874742	    -16.44583019	      9.34995959	    -11.87246317	     -8.10907900	     -4.28879281	     -0.38595952
      5.41000000	      2.25572689	     -3.72907071	    314.92858488	     -0.37355978	      0.92911651	      0.66595262	     17.91557167	    -10.62489846	     -3.10749237	    -33.03960688	      0.53763198	      8.72776167	     -4.42807484	      7.06418736	     10.04085474	    -16.53469477	      9.67088975	    -11.82823378	     -8.06791801	     -4.44816930	     -0.63511533
      5.42000000	      2.38760201	     -3.51349397	    316.29069442	     -0.36974845	      0.92846950	      0.67120639	     17.90019979	    -10.97611614	     -3.33682355	    -30.13265181	      0.54259461	      8.92484174	     -4.78502287	      7.05699334	     11.22227807	    -16.65449912	     10.01775301	    -11.79598894	     -8.01228334	     -4.62530565	     -0.89352626
      5.43000000	      2.51074122	     -3.27999881	    317.63159919	     -0.36596015	      0.92771612	      0.67643060	     17.87091021	    -11.34234518	     -3.61212618	    -27.26066996	      0.51897830	      9.13527214	     -5.11393896	      7.04965488	     12.32719444	    -16.79583521	     10.38852646	    -11.77232484	     -7.94874347	     -4.81497070	     -1.15091887
      5.44000000	      2.62090777	     -3.03746874	    318.95259823	     -0.36220569	      0.92686780	      0.68162398	     17.82949281	    -11.70514558	     -3.90796854	    -24.44593705	      0.47145067	      9.37514898	     -5.41669839	      7.03375762	     13.34655121	    -16.96118216	     10.78245369	    -11.74812410	     -7.88341123	     -5.00628298	     -1.40792518
      5.45000000	      2.68616742	     -2.76599216	    320.27052089	     -0.35851847	      0.92586096	      0.68674322	     17.82919451	    -12.05871566	     -4.20845018	    -21.72891950	      0.40556331	      9.62410417	     -5.62482878	      7.00709075	     14.26846286	    -17.19998724	     11.21006422	    -11.71730705	     -7.78232677	     -5.19345690	     -1.68186484
      5.46000000	      2.72904751	     -2.52286881	    321.58104819	     -0.35490206	      0.92479766	      0.69185290	     17.79853152	    -12.36293091	     -4.47219108	    -19.10498564	      0.31805093	      9.97660031	     -5.82767356	      6.93271604	     15.10978389	    -17.45430631	     11.66681008	    -11.65866735	     -7.70151094	     -5.35165864	     -1.96519650
      5.47000000	      2.73372474	     -2.29981437	    322.90031733	     -0.35138376	      0.92364446	      0.69690720	     17.76224180	    -12.61901863	     -4.65027425	    -16.60338994	      0.20208102	     10.49640619	     -5.98716817	      6.80739981	     15.87123164	    -17.74734294	     12.16785145	    -11.55102626	     -7.62698617	     -5.47146089	     -2.29783644
      5.48000000	      2.67047983	     -2.07669589	    324.23961487	     -0.34801241	      0.92232967	      0.70185149	     17.77911673	    -12.83861687	     -4.73097721	    -14.26987478	      0.03066386	     11.13346405	     -6.02875996	      6.63939289	     16.57680173	    -18.14084912	     12.72082183	    -11.40313261	     -7.52531656	     -5.55313527	     -2.64524186
      5.49000000	      2.53585909	     -1.86464627	    325.62400467	     -0.34476200	      0.92086086	      0.70667718	     17.83831005	    -13.03203230	     -4.73319028	    -12.12806469	     -0.15427890	     11.84500670	     -5.95184714	      6.41613309	     17.22424834	    -18.63590141	     13.32791908	    -11.23273927	     -7.39723476	     -5.58166183	     -3.07441677
      5.50000000	      2.34059542	     -1.67310264	    327.04945674	     -0.34162837	      0.91926380	      0.71137736	     17.93348208	    -13.21218334	     -4.64155936	    -10.20684704	     -0.36768552	     12.63994368	     -5.77383019	      6.14446391	     17.85170750	    -19.22230116	     13.97741259	    -11.04253027	     -7.25510784	     -5.55529205	     -3.56595942
      5.51000000	      2.09334665	     -1.50416728	    328.51057033	     -0.33858713	      0.91756247	      0.71598111	     18.06775688	    -13.39519810	     -4.47748874	     -8.54569098	     -0.59390639	     13.45750293	     -5.51033293	      5.83003678	     18.47129851	    -19.88196142	     14.65460993	    -10.84903052	     -7.09899928	     -5.47952192	     -4.12540470
      5.52000000	      1.81330328	     -1.36192405	    329.98522860	     -0.33561592	      0.91580301	      0.72053873	     18.24147511	    -13.59045917	     -4.25843099	     -7.18796400	     -0.82219067	     14.24350264	     -5.19097134	      5.48471832	     19.09715195	    -20.59478866	     15.33186189	    -10.66219810	     -6.93908698	     -5.36573488	     -4.72463761
      5.53000000	      1.53547420	     -1.25215997	    331.44527385	     -0.33268003	      0.91405313	      0.72512099	     18.44495965	    -13.80359356	     -4.02290678	     -6.18359663	     -1.01183080	     14.91321764	     -4.86401636	      5.12209585	     19.71492409	    -21.33792412	     15.99328051	    -10.49882626	     -6.80083251	     -5.23079969	     -5.34253606
      5.54000000	      1.28976090	     -1.16832594	    332.82812463	     -0.32972715	      0.91239647	      0.72989474	     18.66599952	    -14.02480888	     -3.76061405	     -5.53195195	     -1.17700217	     15.45047490	     -4.59899576	      4.75274305	     20.29980594	    -22.03262538	     16.59663013	    -10.36402072	     -6.68728950	     -5.10778362	     -5.91387862
